<?xml version="1.0" encoding="UTF-8"?><svg xmlns="http://www.w3.org/2000/svg" width="191.97" height="92.79" viewBox="0 0 191.97 92.79"><defs><style>.cls-1{fill:#0e2332;}.cls-1,.cls-2,.cls-3{stroke-width:0px;}.cls-2{fill:#fff;}.cls-3{fill:#e9443a;}</style></defs><g id="Layer_2"><rect class="cls-2" x=".01" width="191.96" height="92.54"/></g><g id="Layer_1"><g id="GMKDR9"><path class="cls-3" d="m118.91,0c1.69.12,3.39.22,5.08.35,2.52.2,5.03.41,7.54.62,0,.07,0,.13.02.2-.86.25-1.73.5-2.59.75-14.02,4.09-27.56,9.35-40.29,16.56-4.07,2.3-7.98,4.86-11.58,7.86-.16.14-.35.33-.53.34-1.74.03-3.49.02-5.23.02-.03-.07-.07-.15-.1-.22,1.34-1.12,2.63-2.3,4.02-3.35,6.21-4.7,13.04-8.37,20.11-11.53,6.07-2.71,12.29-5.09,18.45-7.62.22-.09.43-.17.52-.21-1.36,0-2.84-.13-4.29.02-4.88.52-9.77.98-14.62,1.74-10.76,1.68-21.44,3.74-31.83,7.11-.84.27-1.19.65-1.23,1.63-.15,3.88-.58,7.74-1.52,11.53-.14.56-.33.83-.96.78-.78-.06-1.56-.01-2.45-.01.85-3.96,1.6-7.86,1.66-11.86-4.46.22-18.9,9.66-24.53,16.05v-4.14H14.6v49.7c-.64-.55-1.13-.96-1.6-1.38-4.51-4.05-8.36-8.59-10.79-14.21-1.06-2.46-1.79-5.02-2.04-7.7-.02-.21-.11-.41-.17-.62v-3.89c.25-1.37.43-2.76.77-4.11,1.51-6.07,4.87-11.06,9.21-15.45,4.98-5.03,10.86-8.78,17.16-11.88,15.22-7.49,31.47-11.48,48.11-14.09,4.87-.76,9.78-1.34,14.68-1.81,4.65-.45,9.31-.66,13.97-.97.75-.08,1.47-.15,2.19-.21h12.82Z"/><path class="cls-2" d="m106.09,0c-.72.06-1.45.13-2.17.18-4.66.32-9.33.52-13.97.97-4.91.48-9.81,1.05-14.68,1.81-16.64,2.61-32.9,6.59-48.11,14.09-6.31,3.11-12.19,6.85-17.16,11.88-4.34,4.39-7.7,9.38-9.21,15.45-.35,1.36-.53,2.75-.78,4.12V0h106.08Z"/><path class="cls-3" d="m144.7,92.78c-.06-.05-.12-.12-.19-.13-1.68-.3-2.46-1.41-2.73-3-.35-2.04-.43-4.09.03-6.12.61-2.7,4.26-3.89,6.41-2.1.91.76,1.09,1.8,1.14,2.96h-2.31c-.04-.26-.08-.49-.12-.73-.13-.68-.45-1.14-1.22-1.17-.8-.04-1.3.35-1.48,1.09-.14.57-.21,1.17-.22,1.76-.02,1.19-.03,2.38.05,3.56.12,1.83,1.11,2.46,2.91,1.88v-2.47c-.33-.04-.67-.08-1.06-.12v-1.7h3.43v5.86c-.63.15-1.24.29-1.86.43h-2.78Z"/><path class="cls-3" d="m154.43,92.78c-2.13-.65-2.83-2.33-2.87-4.3-.04-1.71,0-3.46.32-5.14.35-1.88,1.67-2.71,3.6-2.69,1.93.02,3.13.9,3.58,2.76.53,2.19.5,4.39.02,6.59-.31,1.42-1.22,2.28-2.54,2.78h-2.11Zm2.67-6.39c-.1-.77-.16-1.88-.44-2.93-.11-.39-.71-.85-1.14-.9-.38-.05-1.1.34-1.2.67-.7,2.31-.7,4.66,0,6.97.1.34.74.74,1.11.72.41-.02.85-.44,1.18-.79.2-.21.24-.59.28-.91.09-.83.13-1.66.21-2.84h0Z"/><path class="cls-3" d="m164.32,92.78c-1.87-.59-2.63-2.02-2.82-3.83-.2-1.89-.27-3.78.25-5.63.51-1.82,1.73-2.69,3.66-2.66,1.89.02,3.1.89,3.55,2.71.55,2.24.52,4.5,0,6.74-.32,1.39-1.25,2.21-2.54,2.68h-2.11,0Zm2.68-6.07c-.08-.94-.12-1.93-.28-2.91-.12-.69-.48-1.27-1.32-1.3-.72-.02-1.34.38-1.39,1.29-.11,1.92-.12,3.86,0,5.79.05.95.71,1.43,1.39,1.41s1.22-.54,1.36-1.48c.14-.9.17-1.82.25-2.8Z"/><path class="cls-3" d="m26.29,92.78c-2.09-.62-2.81-2.24-2.89-4.2-.06-1.61-.07-3.25.18-4.83.44-2.69,3.11-3.91,5.58-2.71,1.07.52,1.54,1.48,1.79,2.56.41,1.84.4,3.7.14,5.56-.24,1.76-1.01,3.11-2.85,3.61h-1.95Zm-.68-6.12c.1.99.16,2.04.34,3.07.12.71.58,1.26,1.38,1.23.76-.02,1.25-.56,1.27-1.25.07-2,.07-4.01,0-6.02-.03-.67-.5-1.19-1.28-1.21-.83-.02-1.25.51-1.37,1.22-.17.95-.22,1.92-.33,2.94v.02Z"/><path class="cls-3" d="m88.57,92.78c-2.13-.64-2.82-2.3-2.89-4.28-.06-1.58-.07-3.19.19-4.75.45-2.68,3.13-3.91,5.58-2.7,1.1.54,1.67,1.52,1.77,2.65.15,1.82.23,3.66.12,5.47-.1,1.77-.98,3.11-2.83,3.61h-1.95,0Zm2.65-6.43c-.1-.75-.2-1.85-.42-2.92-.11-.55-.56-1.02-1.17-.9-.44.09-1.09.38-1.19.72-.69,2.31-.7,4.66.02,6.97.11.34.74.71,1.13.7.38,0,.82-.41,1.12-.74.21-.24.28-.64.31-.98.09-.83.12-1.66.2-2.85Z"/><path class="cls-3" d="m131.23,92.78c-.17-.06-.35-.14-.52-.19-1.17-.3-1.96-1-2.27-2.19-.62-2.4-.68-4.82-.07-7.21.48-1.91,2.2-2.83,4.39-2.5,2,.3,3.02,1.43,3.02,3.35,0,.1-.03.21-.07.4-.62,0-1.24.05-1.85-.03-.18-.02-.42-.36-.45-.58-.11-.75-.38-1.29-1.24-1.33-.82-.04-1.47.33-1.52,1.23-.1,1.98-.07,3.98,0,5.96.03.73.6,1.18,1.35,1.3,1.09.18,1.46-.12,1.46-1.22v-1.45c-.45-.05-.79-.09-1.16-.13-.02-.21-.05-.39-.05-.58v-1.11h3.48v5.85c-.62.14-1.27.28-1.91.42h-2.6.01Z"/><path class="cls-3" d="m16.39,92.78c-2.06-.59-2.83-2.16-2.9-4.1-.06-1.69-.05-3.4.2-5.06.3-1.99,1.6-2.93,3.56-2.97,2.03-.04,3.27.86,3.74,2.86.5,2.13.46,4.28.01,6.42-.31,1.49-1.23,2.41-2.66,2.84h-1.95Zm2.61-6.09c-.11-1.02-.17-2.04-.34-3.04-.11-.65-.51-1.13-1.26-1.15-.78-.02-1.22.44-1.37,1.13-.43,2.05-.44,4.12,0,6.17.14.68.58,1.19,1.34,1.18s1.19-.54,1.3-1.22c.16-1,.22-2.03.33-3.06h0Z"/><path class="cls-3" d="m69.76,92.78c-2.06-.92-2.58-1.72-2.35-3.72h2.32c.06.3.12.59.17.88.09.58.43,1.02.99.99.45-.02,1.07-.24,1.27-.58.2-.33.13-1.06-.12-1.37-.5-.61-1.2-1.06-1.83-1.57-.63-.51-1.35-.93-1.88-1.52-1.66-1.83-.73-4.61,1.69-5.08.67-.13,1.4-.16,2.08-.06,1.84.26,2.7,1.42,2.58,3.37-.12.02-.25.05-.38.05h-1.89c-.07-.3-.12-.56-.19-.81-.2-.75-.82-1.06-1.58-.81-.63.21-.96.99-.57,1.6.33.51.79.95,1.27,1.32.59.47,1.26.83,1.89,1.25,1.2.82,1.76,1.95,1.51,3.41-.24,1.42-1.12,2.22-2.51,2.51-.07.01-.13.09-.2.13h-2.27Z"/><path class="cls-3" d="m183.46,92.78c-2.06-.91-2.58-1.7-2.36-3.72h2.32c.06.32.04.69.2.94.25.37.59.84.96.91.38.07,1.04-.17,1.22-.48.21-.34.21-1.08-.03-1.37-.51-.64-1.23-1.11-1.88-1.63-.61-.49-1.29-.91-1.83-1.46-.9-.9-1.08-2.03-.68-3.23.38-1.13,1.24-1.76,2.38-1.94.66-.1,1.35-.14,2-.05,1.85.27,2.7,1.4,2.59,3.37-.12.02-.25.05-.38.05h-1.89c-.06-.3-.11-.56-.18-.81-.2-.75-.82-1.07-1.57-.81-.62.21-.97.99-.57,1.59.35.52.84.98,1.34,1.37.63.5,1.36.88,2.01,1.36,1.13.83,1.57,1.96,1.3,3.34-.26,1.34-1.09,2.12-2.41,2.41-.1.02-.18.1-.27.15h-2.27,0Z"/><path class="cls-3" d="m35.37,92.78c-1.43-.49-2.28-1.42-2.36-3-.03-.61.14-.84.75-.8.56.04,1.12,0,1.67,0,.07.43.03.81.2,1.04.25.36.62.82.99.88.38.06,1.03-.2,1.21-.52.2-.36.17-1.06-.07-1.39-.42-.57-1.05-.99-1.62-1.43-.59-.47-1.25-.85-1.82-1.35-1.04-.91-1.32-2.09-.95-3.38.36-1.25,1.29-1.9,2.54-2.07.58-.08,1.19-.13,1.77-.05,1.95.27,2.79,1.35,2.69,3.4h-2.29c-.03-.2,0-.48-.13-.65-.24-.35-.52-.82-.87-.9-.36-.09-.99.1-1.18.39-.21.33-.24,1-.04,1.32.35.55.91.97,1.44,1.38.6.46,1.27.82,1.87,1.27,1.15.87,1.54,2.04,1.21,3.44-.3,1.31-1.17,2.01-2.45,2.27-.1.02-.19.09-.29.14h-2.27,0Z"/><path class="cls-1" d="m183.24,46.8v29.08c-.27.02-.51.05-.74.05-11.06,0-22.12.13-33.17-.08-7.35-.14-13.98-2.6-19.38-7.77-10.31-9.86-9.28-27.24,4.81-34.96,4.13-2.27,8.6-3.44,13.28-3.72,2.1-.13,4.21-.15,6.32-.16,12.16-.01,24.33,0,36.49,0h1.12c-1.03,1.35-1.96,2.56-2.89,3.77-1.98,2.57-3.97,5.13-5.93,7.71-.36.48-.73.67-1.34.67-9.81-.02-19.63,0-29.44-.02-2.64,0-5.24.21-7.68,1.29-3.63,1.61-6.24,4.14-7.01,8.18-.82,4.33.91,8.3,4.61,10.69,2.42,1.57,5.12,2.34,7.96,2.38,6.05.08,12.11.03,18.17.03.13,0,.26-.02.43-.04v-6.68h-24.02c.19-.31.28-.49.41-.64,2.61-3.14,5.22-6.28,7.85-9.4.18-.21.52-.41.79-.41,9.7-.02,19.41,0,29.11,0,.05,0,.11.02.26.05h-.01Z"/><path class="cls-1" d="m119.77,48.23c-1.17,9.2,1.77,16.82,8.74,23.04-.63.48-1.22.98-1.86,1.39-2.56,1.66-5.42,2.54-8.42,2.88-2.36.26-4.74.37-7.11.38-13.68.03-27.35.02-41.03.02h-1.11c.18-.28.28-.47.42-.65,2.76-3.57,5.53-7.13,8.26-10.72.37-.49.76-.64,1.35-.64,11.49.02,22.97.02,34.46,0,.96,0,1.95-.13,2.87-.38,1.45-.39,2.1-1.44,2.09-3.07,0-1.58-.64-2.56-2.14-2.92-1.06-.25-2.18-.34-3.28-.35-8.14-.03-16.27,0-24.41-.02-3.55,0-7.06-.3-10.39-1.72-5.03-2.14-7.56-5.95-7.64-11.41-.07-4.3,1.18-8.04,4.65-10.8,1.94-1.54,4.17-2.54,6.56-3.01,2.51-.49,5.07-.94,7.61-.96,14.49-.09,28.97-.05,43.46-.05h.73c-.67.61-1.18,1.07-1.68,1.53-2.62,2.42-5.27,4.8-7.82,7.28-.76.74-1.32,1.71-1.85,2.64-.3.53-.59.69-1.18.69-10.38-.02-20.76-.03-31.14,0-1.17,0-2.37.16-3.51.45-1.33.34-1.9,1.3-1.91,2.75,0,1.43.57,2.43,1.85,2.81.94.28,1.95.46,2.93.46,8.51.04,17.03,0,25.54.03,1.35,0,2.7.1,4.05.18.29.02.57.11.9.17h.01Z"/><path class="cls-1" d="m73.88,29.28c.28.89-.06,1.39-.72,1.89-3.3,2.53-5.03,5.97-5.55,10.06-.4,3.17-.12,6.25,1.16,9.19,1.01,2.31,2.57,4.18,4.63,5.61.43.3.58.61.58,1.13-.03,2.22,0,4.43-.03,6.65,0,.37-.15.8-.37,1.09-2.71,3.54-5.44,7.06-8.18,10.58-.15.19-.41.41-.62.41-1.7.03-3.39.02-5.17.02v-17.94h-27.76v17.88h-14.51V29.28h14.45v16.44h27.79v-16.44h14.31,0Z"/><path class="cls-3" d="m109.88,26.37c1.44-.57,2.87-1.16,4.32-1.7,9.18-3.44,18.61-5.96,28.27-7.63,2.76-.48,5.54-.88,8.31-1.27.5-.07.63-.26.62-.72-.02-1.13,0-2.26,0-3.44h2.03v3.8c1.35-.12,2.58-.21,3.8-.36.13-.02.3-.39.31-.61.03-.92,0-1.83,0-2.82h2.04v3.23c1.4-.08,2.69-.15,4.08-.23v-3.02h2.07v2.9h4.25v-2.9h2.04v2.95c1.38.06,2.66.12,4.05.18v-3.13h2.02v3.29c4,.5,7.9,1.05,11.81,2.57-4.02-.26-7.82-.51-11.75-.76v4.04h-2.07v-3.98h-3.99v3.96h-2.07v-3.78h-4.24v3.79h-2.07v-3.61c-1.31.08-2.52.14-3.72.26-.15.01-.38.35-.38.54-.04.91-.02,1.83-.02,2.82h-2.02v-3.12c-1.39.14-2.69.27-4.08.41v2.72h-2.08v-2.43c-1.35.18-2.59.33-3.83.52-8.39,1.33-16.66,3.19-24.75,5.81-1.08.35-2.19.62-3.21,1.1-1.88.9-3.86.88-5.86.84-1.28-.03-2.56,0-3.84,0-.01-.06-.03-.12-.04-.19v-.03Z"/><path class="cls-3" d="m111.48,13.8c-1.96-1.12-4.03-.56-6.07-.52l-.05-.2c1.06-.3,2.1-.73,3.17-.87,1.14-.15,2.32-.04,3.48-.03.21,0,.5,0,.6.13.5.59,1.06.41,1.62.18,1.34-.55,2.66-1.13,4.2-1.78-2.04-1.14-4-.78-5.93-.68,0-.07-.02-.14-.02-.21.94-.12,1.87-.32,2.81-.35,1.5-.05,3.02-.21,4.48.4.27.11.66.09.95,0,1.28-.42,2.54-.89,3.95-1.39-1.67-.58-3.14-1.45-4.93-.9.96-.67,2-.99,3.08-.94,1.42.07,2.88.09,4.09,1.04.13.1.36.16.53.12,1.47-.31,2.94-.65,4.42-1.09-1.51-1.1-3.26-1.12-5.03-1.09-.01-.07-.03-.14-.04-.21.68-.14,1.36-.28,2.03-.42,1.38-.29,2.75-.28,4.05.26.4.17.71.56,1.07.84.14.11.29.31.43.3,1.44-.12,2.87-.27,4.31-.41.04-.12.07-.23.11-.35-.35-.21-.67-.52-1.05-.61-1.46-.37-2.94-.67-4.42-1.15.24-.04.47-.1.71-.1,1.83-.05,3.57.42,5.31.93.22.06.52.21.59.39.33.87,1.01.81,1.73.79.83-.03,1.66,0,2.49,0,.03-.13.06-.25.09-.38-.62-.29-1.24-.59-1.84-.87.72-.37,2.72.08,3.36.74.19.2.46.42.71.44,1.37.1,2.74.14,4.15.21-.04-.27-.08-.52-.15-1.02.69.24,1.43.28,1.76.66.64.74,1.48.82,2.27,1,1.36.29,1.36,1.05.61,1.86-.43.46-1.06.81-1.66,1.03-.65.23-.84-.27-.82-.83.02-.54.06-1.07.09-1.61-1.21-.22-2.3-.42-3.55-.64.37.96,1.29,1.77.36,2.68-.37.36-.86.6-1.29.89-.3-1.14-.49-2.08-.8-2.97-.09-.25-.49-.51-.77-.54-.83-.07-1.67-.03-2.65-.03.59,1.2-.2,2.04-.6,2.97-.06.14-.51.25-.7.17-.62-.26-1.12-1.63-1.04-2.4.02-.18-.22-.56-.35-.56-1.28-.01-2.57.03-3.7.06.15.8.41,1.47.36,2.12-.04.47-.42.97-.78,1.33-.41.41-1.05.18-1.26-.39-.24-.66-.4-1.35-.66-2-.1-.25-.39-.63-.56-.61-1.06.09-2.1.27-3.24.54,1.11.62.91,1.5.74,2.4-.04.22.07.47.08.71,0,.22-.02.44-.04.66-.23-.04-.48-.03-.68-.13-.58-.3-1.16-.63-1.71-.99-.21-.14-.41-.36-.5-.58-.51-1.22-1.13-1.55-2.4-1.2-1.18.33-2.35.69-3.51,1.03.68.29,1.36.48,1.94.84.94.59,1.04,1.06.7,2.13-.13.39-.22.8-.36,1.3-.17-.04-.42-.08-.66-.17-.4-.15-.79-.3-1.17-.49-.24-.13-.47-.32-.65-.53-.14-.16-.18-.39-.28-.58-.74-1.48-1.52-1.82-3.07-1.27-.86.3-1.7.68-2.54,1.04-.12.05-.22.13-.48.28,1.55.09,2.28.86,2.44,2.22.03.28.27.52.36.8.07.21.15.56.05.65-.22.21-.6.46-.84.4-.53-.14-1.23.4-1.6-.47-.39-.89-.89-1.74-1.44-2.55-.14-.2-.73-.3-1-.18-1.27.57-2.51,1.22-3.91,1.93,1.58.73,2.47,1.78,2.62,3.33.04.4-.13.81-.2,1.22-.43-.08-.93-.05-1.28-.26-1.03-.64-2.02-1.35-2.99-2.08-.6-.45-1.1-.49-1.72,0-.89.69-1.85,1.28-2.76,1.91,2.1.6,3.94,1.39,4.39,3.95-.33.65-1.53,1-2.47.47-.82-.45-1.62-.96-2.37-1.53-1.37-1.03-2.14-1.05-3.45.04-.75.62-1.49,1.25-2.26,1.84-.21.16-.49.22-.74.32.11.13.21.27.32.4.3-.05.64-.03.89-.18.99-.56,1.87-.19,2.76.23.55.26,1.16.44,1.67.76.3.19.45.6.75,1.02-3.93-.1-7.66-.55-11.63-.47,1.06-.6,1.7-.67,2.6-.39.11.04.29.07.36.01,1.28-1.05,2.56-2.11,3.97-3.29-3.26-.73-6.03.15-8.76,1.36-.04-.08-.08-.15-.13-.23.24-.25.44-.55.71-.75,2.46-1.8,5.27-2.65,8.27-2.95.1-.01.22,0,.32.02.51.1,1.06.4,1.51.29,1.75-.43,3.18-1.45,4.73-2.78-1.57-.38-2.94-.22-4.26-.1-1.35.13-2.67.47-4.03.72.17-.16.34-.41.57-.52,2.57-1.26,5.27-2.01,8.16-1.89.05,0,.11,0,.16.01,2.1.98,3.28-.81,4.83-1.64l-.02-.02Z"/><path class="cls-3" d="m56.92,28.88c0,2.54.19,5.1-.06,7.62-.24,2.39-1.2,4.63-2.59,6.64-.1.15-.34.29-.52.3-1.21.03-2.41,0-3.75,0,1.59-2.31,2.73-4.7,3.62-7.37-6.38-.46-12.66-.91-19.01-1.37v-2.68c2.34.17,4.62.33,6.91.5,3.23.24,6.46.5,9.69.75.94.07,1.89.09,2.83.2.51.06.84-.1,1.03-.55.52-1.18,1.03-2.37,1.54-3.55.07-.17.13-.34.19-.51.04,0,.08.02.12.03v-.02Z"/><path class="cls-3" d="m123.83,90.13v-9.26h1.99v11.73c-.94,0-1.85.04-2.76-.03-.2-.02-.46-.39-.55-.65-1.02-2.87-2-5.75-3-8.63-.06-.17-.13-.33-.25-.62.09,3.38.17,6.6.25,9.88h-2.18v-11.75c.97,0,1.91-.04,2.84.03.23.02.52.4.62.68.98,2.74,1.93,5.49,2.89,8.24.04.12.09.24.14.39h.01Z"/><path class="cls-3" d="m60.66,86.83c1.53.38,1.59,1.55,1.58,2.76v2.96h-2.51v-2.81c0-1.81-.44-2.18-2.36-1.91v4.75h-2.35v-11.76c1.86.07,3.74-.26,5.58.32.72.23,1.16.74,1.38,1.47.51,1.7.09,3.18-1.31,4.23h-.01Zm-3.3-4.12c0,.94-.02,1.86.02,2.77,0,.15.18.4.32.44,1,.28,1.93-.39,2.01-1.42.12-1.51-.54-2.05-2.35-1.79Z"/><path class="cls-3" d="m101.2,86.79c1.49.42,1.67,1.44,1.65,2.64-.02,1.04.08,2.08.13,3.17-.58,0-1.23-.03-1.87,0-.51.03-.67-.2-.68-.66-.01-.76-.05-1.51-.07-2.27-.05-1.79-.48-2.14-2.37-1.86v4.72h-2.36v-11.81c1.7.08,3.4.08,5.07.26,1.25.14,1.86.88,1.99,2.19.14,1.37.17,2.73-1.5,3.61h.01Zm-3.19-.96c1.03.19,1.74,0,2.08-.52.33-.5.36-1.74,0-2.17-.56-.67-1.33-.52-2.09-.5v3.19h0Z"/><path class="cls-3" d="m8.88,80.83h2.36v11.71h-2.35v-5.1h-2.86v5.1h-2.38v-11.68h2.3v4.56c.9,0,1.7.03,2.5-.03.15-.01.39-.39.4-.6.04-1.29.02-2.59.02-3.96h.01Z"/><path class="cls-3" d="m171.48,92.58v-11.86c1.75.09,3.47.09,5.17.3,1.05.13,1.78.92,2.09,1.94.77,2.49.78,5,0,7.49-.43,1.37-1.52,2.03-2.89,2.11-1.42.09-2.85.02-4.36.02h0Zm2.44-1.93c1.81.36,2.73-.2,2.87-1.88.12-1.41.12-2.86,0-4.27-.14-1.65-1.2-2.26-2.87-1.81,0,0,0,7.96,0,7.96Z"/><path class="cls-3" d="m79.02,92.57h-2.36v-11.63c1.7,0,3.4-.1,5.08.03,1.31.1,1.91.84,2.13,2.17.09.53.14,1.08.12,1.61-.11,2.12-1.09,3.06-3.22,3.13-.56.02-1.12,0-1.74,0v4.69h-.01Zm-.01-6.61c.88,0,1.76.24,2.34-.59.38-.55.33-1.8-.07-2.24-.64-.71-1.47-.4-2.27-.43v3.27h0Z"/><path class="cls-3" d="m53.17,90.7v1.85h-6.31v-11.71h6.13v1.79h-3.72v2.84h3.42v1.78h-3.42v3.45h3.9Z"/><path class="cls-3" d="m108.84,92.57h-2.38v-9.9h-2.71v-1.83h7.76v1.79h-2.66v9.94h-.01Z"/><path class="cls-3" d="m44.69,80.88v11.66h-2.28v-11.66s2.28,0,2.28,0Z"/><path class="cls-3" d="m115.09,92.56h-2.29v-11.7h2.29v11.7Z"/></g></g></svg>